Live Free or Die Hard*2007*[BluRay][1080p][ENG, POL]

General information:
Country: USA, UK 
Release: 12 June 2007
Genre: Action, Crime, Thriller
Director: Len Wiseman
Screenplay: Mark Bomback, Mark Bomback (story)
Original Music: Marco Beltrami
Cinematography by: Simon Duggan
Duration: 2h 8mn
Language: English, Polish
Subtitles: English, Polish
Rating: 7.3/10 - 26706 votes

Cast:
Bruce Willis  ...  John McClane  
Timothy Olyphant  ...  Thomas Gabriel  
Justin Long  ...  Matthew 'Matt' Farrell  
Maggie Q  ...  Mai Linh  
Cliff Curtis  ...  FBI Deputy Director Miguel Bowman  
Jonathan Sadowski  ...  Trey  
Andrew Friedman  ...  Casper  
Kevin Smith  ...  Frederick 'Warlock' Kaludis  
Yorgo Constantine  ...  Russo  
Cyril Raffaelli  ...  Rand  
Chris Palermo  ...  Del (as Christopher Palermo)  
Mary Elizabeth Winstead  ...  Lucy Gennaro McClane  
Sung Kang  ...  Raj  
Zeljko Ivanek  ...  Agent Molina  
Christina Chang  ...  Taylor  

Plot:
John McClane takes on an Internet-based terrorist organization who is systematically shutting down the United States. 

Specifications:
General
Format                           : Matroska
Overall bit rate                 : 6 624 Kbps

Video
Format                           : AVC
Format/Info                      : Advanced Video Codec
Format profile                   : High@L4.0
Format settings, CABAC           : Yes
Format settings, ReFrames        : 2 frames
Muxing mode                      : Container profile=Unknown@4.0
Codec ID                         : V_MPEG4/ISO/AVC
Bit rate                         : 5 794 Kbps
Width                            : 1 920 pixels
Height                           : 1 080 pixels
Display aspect ratio             : 16:9
Frame rate                       : 23.976 fps

Audio 1
Format                           : AC-3
Format/Info                      : Audio Coding 3
Mode extension                   : CM (complete main)
Codec ID                         : A_AC3
Bit rate mode                    : Constant
Bit rate                         : 384 Kbps
Channel(s)                       : 6 channels
Channel positions                : Front: L C R, Side: L R, LFE
Sampling rate                    : 48.0 KHz
Stream size                      : 354 MiB (6%)
Title                            : English

Audio 2
Format                           : AC-3
Format/Info                      : Audio Coding 3
Mode extension                   : CM (complete main)
Codec ID                         : A_AC3
Bit rate mode                    : Constant
Bit rate                         : 448 Kbps
Channel(s)                       : 6 channels
Channel positions                : Front: L C R, Side: L R, LFE
Sampling rate                    : 48.0 KHz
Stream size                      : 412 MiB (7%)
Title                            : Polish
Language                         : Polish

Text 1
Format                           : UTF-8
Codec ID                         : S_TEXT/UTF8
Codec ID/Info                    : UTF-8 Plain Text
Title                            : English

Text 2
Format                           : UTF-8
Codec ID                         : S_TEXT/UTF8
Codec ID/Info                    : UTF-8 Plain Text
Title                            : Polish
Language                         : Polish
